HIERARCHY
ROOT pelvis
{
	OFFSET 0.003123 -0.351407 0.012037
	CHANNELS 6 Xposition Yposition Zposition Zrotation Yrotation Xrotation 
	JOINT left_hip
	{
		OFFSET 0.058189 -0.092763 -0.026001
		CHANNELS 3 Zrotation Yrotation Xrotation
		JOINT left_knee
		{
			OFFSET 0.054695 -0.378753 -0.009396
			CHANNELS 3 Zrotation Yrotation Xrotation
			JOINT left_ankle
			{
				OFFSET -0.043453 -0.403059 -0.031876
				CHANNELS 3 Zrotation Yrotation Xrotation
				JOINT left_foot
				{
					OFFSET 0.047257 -0.057997 0.118216
					CHANNELS 3 Zrotation Yrotation Xrotation
					End Site
					{
						OFFSET 0.000000 0.000000 0.000000
					}
				}
			}
		}
	}
	JOINT right_hip
	{
		OFFSET -0.063267 -0.103908 -0.021250
		CHANNELS 3 Zrotation Yrotation Xrotation
		JOINT right_knee
		{
			OFFSET -0.044210 -0.362380 -0.016824
			CHANNELS 3 Zrotation Yrotation Xrotation
			JOINT right_ankle
			{
				OFFSET 0.015417 -0.410728 -0.020192
				CHANNELS 3 Zrotation Yrotation Xrotation
				JOINT right_foot
				{
					OFFSET -0.038812 -0.058328 0.119049
					CHANNELS 3 Zrotation Yrotation Xrotation
					End Site
					{
						OFFSET 0.000000 0.000000 0.000000
					}
				}
			}
		}
	}
	JOINT spine_1
	{
		OFFSET -0.002763 0.109891 -0.027618
		CHANNELS 3 Zrotation Yrotation Xrotation
		JOINT spine_2
		{
			OFFSET 0.009448 0.131853 -0.005940
			CHANNELS 3 Zrotation Yrotation Xrotation
			JOINT spine_3
			{
				OFFSET -0.011330 0.052235 0.028447
				CHANNELS 3 Zrotation Yrotation Xrotation
				JOINT neck
				{
					OFFSET -0.012164 0.165167 -0.031615
					CHANNELS 3 Zrotation Yrotation Xrotation
					JOINT head
					{
						OFFSET 0.024783 0.160452 0.020737
						CHANNELS 3 Zrotation Yrotation Xrotation
						End Site
						{
							OFFSET 0.000000 0.000000 0.000000
						}
					}
				}
				JOINT left_collar
				{
					OFFSET 0.046364 0.084944 -0.007220
					CHANNELS 3 Zrotation Yrotation Xrotation
					JOINT left_shoulder
					{
						OFFSET 0.119239 0.057728 -0.015461
						CHANNELS 3 Zrotation Yrotation Xrotation
						JOINT left_elbow
						{
							OFFSET 0.254123 -0.072151 -0.042459
							CHANNELS 3 Zrotation Yrotation Xrotation
							JOINT left_wrist
							{
								OFFSET 0.251987 0.023221 -0.002472
								CHANNELS 3 Zrotation Yrotation Xrotation
								JOINT left_index_1
								{
									OFFSET 0.101902 -0.008688 0.019351
									CHANNELS 3 Zrotation Yrotation Xrotation
									JOINT left_index_2
									{
										OFFSET 0.030149 -0.011154 0.001151
										CHANNELS 3 Zrotation Yrotation Xrotation
										JOINT left_index_3
										{
											OFFSET 0.006504 -0.021577 -0.002433
											CHANNELS 3 Zrotation Yrotation Xrotation
											End Site
											{
												OFFSET 0.000000 0.000000 0.000000
											}
										}
									}
								}
								JOINT left_middle_1
								{
									OFFSET 0.109398 -0.006328 -0.003981
									CHANNELS 3 Zrotation Yrotation Xrotation
									JOINT left_middle_2
									{
										OFFSET 0.026472 -0.015218 -0.004641
										CHANNELS 3 Zrotation Yrotation Xrotation
										JOINT left_middle_3
										{
											OFFSET 0.005022 -0.023347 -0.001911
											CHANNELS 3 Zrotation Yrotation Xrotation
											End Site
											{
												OFFSET 0.000000 0.000000 0.000000
											}
										}
									}
								}
								JOINT left_pinky_1
								{
									OFFSET 0.084047 -0.014539 -0.043750
									CHANNELS 3 Zrotation Yrotation Xrotation
									JOINT left_pinky_2
									{
										OFFSET 0.012124 -0.014448 -0.005375
										CHANNELS 3 Zrotation Yrotation Xrotation
										JOINT left_pinky_3
										{
											OFFSET 0.003798 -0.018853 0.000167
											CHANNELS 3 Zrotation Yrotation Xrotation
											End Site
											{
												OFFSET 0.000000 0.000000 0.000000
											}
										}
									}
								}
								JOINT left_ring_1
								{
									OFFSET 0.097444 -0.009268 -0.027345
									CHANNELS 3 Zrotation Yrotation Xrotation
									JOINT left_ring_2
									{
										OFFSET 0.023561 -0.016057 -0.001895
										CHANNELS 3 Zrotation Yrotation Xrotation
										JOINT left_ring_3
										{
											OFFSET 0.004257 -0.023548 0.000814
											CHANNELS 3 Zrotation Yrotation Xrotation
											End Site
											{
												OFFSET 0.000000 0.000000 0.000000
											}
										}
									}
								}
								JOINT left_thumb_1
								{
									OFFSET 0.040636 -0.017977 0.025611
									CHANNELS 3 Zrotation Yrotation Xrotation
									JOINT left_thumb_2
									{
										OFFSET 0.021637 -0.017639 0.011623
										CHANNELS 3 Zrotation Yrotation Xrotation
										JOINT left_thumb_3
										{
											OFFSET 0.024002 -0.008356 0.006548
											CHANNELS 3 Zrotation Yrotation Xrotation
											End Site
											{
												OFFSET 0.000000 0.000000 0.000000
											}
										}
									}
								}
							}
						}
					}
				}
				JOINT right_collar
				{
					OFFSET -0.047695 0.084339 -0.013400
					CHANNELS 3 Zrotation Yrotation Xrotation
					JOINT right_shoulder
					{
						OFFSET -0.102578 0.053524 -0.012669
						CHANNELS 3 Zrotation Yrotation Xrotation
						JOINT right_elbow
						{
							OFFSET -0.271150 -0.036492 -0.026467
							CHANNELS 3 Zrotation Yrotation Xrotation
							JOINT right_wrist
							{
								OFFSET -0.249267 -0.004533 -0.015325
								CHANNELS 3 Zrotation Yrotation Xrotation
								JOINT right_index_1
								{
									OFFSET -0.099881 -0.011783 0.019600
									CHANNELS 3 Zrotation Yrotation Xrotation
									JOINT right_index_2
									{
										OFFSET -0.030148 -0.011154 0.001151
										CHANNELS 3 Zrotation Yrotation Xrotation
										JOINT right_index_3
										{
											OFFSET -0.006505 -0.021577 -0.002432
											CHANNELS 3 Zrotation Yrotation Xrotation
											End Site
											{
												OFFSET 0.000000 0.000000 0.000000
											}
										}
									}
								}
								JOINT right_middle_1
								{
									OFFSET -0.107376 -0.009422 -0.003734
									CHANNELS 3 Zrotation Yrotation Xrotation
									JOINT right_middle_2
									{
										OFFSET -0.026472 -0.015218 -0.004641
										CHANNELS 3 Zrotation Yrotation Xrotation
										JOINT right_middle_3
										{
											OFFSET -0.005022 -0.023347 -0.001911
											CHANNELS 3 Zrotation Yrotation Xrotation
											End Site
											{
												OFFSET 0.000000 0.000000 0.000000
											}
										}
									}
								}
								JOINT right_pinky_1
								{
									OFFSET -0.082027 -0.017634 -0.043503
									CHANNELS 3 Zrotation Yrotation Xrotation
									JOINT right_pinky_2
									{
										OFFSET -0.012123 -0.014448 -0.005374
										CHANNELS 3 Zrotation Yrotation Xrotation
										JOINT right_pinky_3
										{
											OFFSET -0.003798 -0.018852 0.000167
											CHANNELS 3 Zrotation Yrotation Xrotation
											End Site
											{
												OFFSET 0.000000 0.000000 0.000000
											}
										}
									}
								}
								JOINT right_ring_1
								{
									OFFSET -0.095423 -0.012362 -0.027099
									CHANNELS 3 Zrotation Yrotation Xrotation
									JOINT right_ring_2
									{
										OFFSET -0.023561 -0.016057 -0.001895
										CHANNELS 3 Zrotation Yrotation Xrotation
										JOINT right_ring_3
										{
											OFFSET -0.004257 -0.023548 0.000816
											CHANNELS 3 Zrotation Yrotation Xrotation
											End Site
											{
												OFFSET 0.000000 0.000000 0.000000
											}
										}
									}
								}
								JOINT right_thumb_1
								{
									OFFSET -0.038613 -0.021074 0.025861
									CHANNELS 3 Zrotation Yrotation Xrotation
									JOINT right_thumb_2
									{
										OFFSET -0.021636 -0.017639 0.011623
										CHANNELS 3 Zrotation Yrotation Xrotation
										JOINT right_thumb_3
										{
											OFFSET -0.024004 -0.008353 0.006547
											CHANNELS 3 Zrotation Yrotation Xrotation
											End Site
											{
												OFFSET 0.000000 0.000000 0.000000
											}
										}
									}
								}
							}
						}
					}
				}
			}
		}
	}
}
MOTION
Frames: 4
Frame Time: 0.050000
-0.345772 0.954962 1.060455 118.473263 89.078804 113.586697 -1.250958 -0.571569 5.675490 3.450221 -0.933182 5.031699 0.634962 -1.853530 2.890910 0.000000 0.000000 0.000000 -3.844114 -2.348287 -6.168727 -3.586619 -3.873298 18.066782 30.232998 22.121929 7.143394 0.000000 0.000000 0.000000 2.308277 -0.240026 8.004774 -9.311630 1.657699 -15.051720 13.424476 15.771988 22.894302 3.209281 1.360918 -7.922458 0.000000 0.000000 0.000000 11.000356 -6.809208 4.670266 -56.812748 -5.784464 -30.873285 -42.152553 -16.997867 4.961446 -1.593633 -3.194636 7.860206 -6.034082 3.944244 1.549925 -3.173247 -2.824006 -8.311353 0.000000 0.000000 0.000000 -44.507882 -6.964778 -9.592158 -46.177016 -2.641344 -12.467041 0.000000 0.000000 0.000000 -4.591605 -16.516586 -15.625979 -66.610543 -20.779810 -20.820881 0.000000 0.000000 0.000000 -27.347537 -6.965975 -5.435290 -45.963561 -4.873486 -9.905541 0.000000 0.000000 0.000000 -1.987092 13.735213 12.692501 -6.851306 4.154862 3.232700 0.000000 0.000000 0.000000 -11.490669 -15.054149 -10.470624 39.173371 7.208936 14.355982 -135.707933 78.115780 -90.758015 -21.369361 7.017843 -50.013163 -3.649993 0.423570 0.076906 1.557056 10.567146 -28.306034 0.000000 0.000000 0.000000 16.612165 14.656626 -4.573820 8.477920 9.411968 -27.536994 0.000000 0.000000 0.000000 10.719958 25.861270 -27.409104 8.105857 2.182604 -5.276464 0.000000 0.000000 0.000000 20.624022 19.578629 -5.049473 5.500403 10.124236 -23.075496 0.000000 0.000000 0.000000 -23.050543 -4.111139 -9.137455 19.686754 -4.165639 7.024695 0.000000 0.000000 0.000000 
-0.347656 0.955929 1.060455 1.411106 89.442423 -4.873809 0.378779 -1.014061 5.813566 1.788607 -1.347155 7.329802 1.017468 -0.812304 3.223794 0.000000 0.000000 0.000000 -2.665042 -1.992112 -6.996455 -5.033520 -4.820671 21.740009 31.762130 23.198520 9.011165 0.000000 0.000000 0.000000 3.771391 -0.453323 9.619154 -12.760794 2.069081 -15.025163 17.457904 14.043195 22.442820 1.960403 1.387225 -8.782191 0.000000 0.000000 0.000000 11.288911 -4.997525 4.013732 -52.827526 -5.696925 -28.436400 -37.530453 -17.804301 4.296149 0.571897 -3.251190 5.075211 -5.114523 2.213409 0.933808 -2.461560 -2.493407 -7.189378 0.000000 0.000000 0.000000 -33.497754 -7.349807 -7.889350 -31.257043 -2.393692 -13.302170 0.000000 0.000000 0.000000 -8.388668 -18.876272 -18.104605 -62.371228 -22.043933 -21.743105 0.000000 0.000000 0.000000 -17.147421 -6.723048 -4.629706 -36.246915 -3.948115 -10.568157 0.000000 0.000000 0.000000 0.134352 12.495338 10.763747 -6.398266 3.090251 2.843992 0.000000 0.000000 0.000000 -13.645947 -15.536436 -11.579358 33.408934 8.677548 12.262418 -113.050792 74.595003 -58.576932 -23.514853 3.079266 -52.716887 -8.521013 -3.809830 1.347503 2.581480 14.810255 -29.784081 0.000000 0.000000 0.000000 16.059733 10.839069 -3.516527 0.380171 7.890784 -30.384506 0.000000 0.000000 0.000000 8.622089 27.467291 -28.469816 7.402593 1.219164 -3.052346 0.000000 0.000000 0.000000 17.943129 19.601188 -5.369954 -2.000385 6.434619 -20.195218 0.000000 0.000000 0.000000 -24.986097 -3.304472 -9.559687 21.718598 -3.311453 7.559538 0.000000 0.000000 0.000000 
-0.351425 0.955606 1.060455 23.272234 87.694757 15.295513 -0.367924 -0.786170 6.429547 1.218366 -1.638656 9.042309 0.867195 0.234346 3.916533 0.000000 0.000000 0.000000 -2.616992 -2.136429 -8.377257 -8.408099 -5.464237 26.271238 35.402487 25.039864 11.855835 0.000000 0.000000 0.000000 0.971112 -0.147124 11.633709 -9.262942 1.867297 -13.865525 16.648307 15.653807 21.737448 2.154058 1.527852 -9.957323 0.000000 0.000000 0.000000 14.532335 -3.024060 5.892908 -50.800622 -8.439501 -27.918170 -30.205195 -16.268750 3.135959 1.748572 -4.124065 -1.871648 -2.058572 2.883408 1.148554 -0.798259 -4.296501 -11.030620 0.000000 0.000000 0.000000 -21.492061 -6.822848 -5.764002 -27.188683 -3.488833 -13.877179 0.000000 0.000000 0.000000 -7.078108 -22.767245 -22.809363 -53.653015 -20.012940 -22.941079 0.000000 0.000000 0.000000 -14.711843 -5.840995 -3.913508 -29.169319 -4.903902 -11.097195 0.000000 0.000000 0.000000 3.616555 10.442415 7.523886 -9.672999 2.442020 3.620223 0.000000 0.000000 0.000000 -14.180162 -16.132528 -11.911284 26.815640 10.311538 9.364399 -98.448441 70.258506 -36.661523 -26.778503 -0.540742 -54.450305 -7.144406 -1.146236 0.645879 -3.306728 10.333888 -23.838609 0.000000 0.000000 0.000000 14.582633 13.010679 -3.810331 -4.455864 5.757645 -28.153483 0.000000 0.000000 0.000000 9.027377 28.159106 -27.619802 8.161903 0.891262 -2.188748 0.000000 0.000000 0.000000 19.358533 19.897060 -4.294232 -2.395229 5.638550 -18.112255 0.000000 0.000000 0.000000 -27.892764 -2.498931 -10.198487 24.396819 -2.533739 8.442184 0.000000 0.000000 0.000000 
-0.355194 0.954317 1.060455 38.102071 87.041157 28.462568 -0.727401 -0.737946 7.197916 -0.252922 -2.001633 10.523429 1.354213 0.902726 3.828915 0.000000 0.000000 0.000000 -5.102390 -3.070386 -8.852361 -9.433359 -7.013888 30.447469 43.056029 28.122918 16.318243 0.000000 0.000000 0.000000 -0.469562 -0.229846 14.210002 -6.338650 1.427129 -14.218874 14.929507 15.749961 21.183694 3.870518 1.735629 -10.529718 0.000000 0.000000 0.000000 16.187017 -1.107208 6.579311 -46.125418 -11.022681 -25.310500 -23.534688 -12.158460 1.702429 3.624341 -2.875172 -8.423632 -0.470217 3.022994 1.137965 -1.432554 -6.866943 -16.272633 0.000000 0.000000 0.000000 -18.634634 -7.014991 -5.180017 -20.242029 -6.043142 -17.855970 0.000000 0.000000 0.000000 -10.085694 -24.570759 -23.966343 -54.793344 -21.025144 -22.208105 0.000000 0.000000 0.000000 -15.785148 -6.176618 -3.815352 -24.726470 -5.999115 -12.669521 0.000000 0.000000 0.000000 8.412158 10.413346 5.479493 -11.804987 5.066925 5.134827 0.000000 0.000000 0.000000 -13.992230 -15.846881 -11.693997 21.940684 12.305635 7.435486 -93.320416 63.234288 -22.771882 -26.435205 -3.438452 -56.229824 -10.011545 -1.629688 1.249896 -0.509791 17.101546 -28.996294 0.000000 0.000000 0.000000 11.948781 14.402302 -4.469100 -0.911887 5.105537 -23.084482 0.000000 0.000000 0.000000 11.386850 29.071546 -26.878187 -1.497816 2.335476 -6.734578 0.000000 0.000000 0.000000 19.054722 19.433115 -4.096086 -8.035772 5.381910 -21.763057 0.000000 0.000000 0.000000 -32.295272 -2.474347 -11.006858 28.732318 -2.060112 9.901336 0.000000 0.000000 0.000000 
